<svg width="35" height="35" viewBox="0 0 35 35" fill="none" xmlns="http://www.w3.org/2000/svg">
<g clip-path="url(#clip0_388_3467)">
<path d="M28.4289 13.459C29.8711 13.459 31.3133 13.4824 32.7555 13.4526C34.3367 13.4227 34.8888 14.2928 34.9551 15.5852C35.0814 17.9992 34.9787 20.3771 34.1912 22.6653C31.9552 29.1655 27.5088 33.3283 20.7129 34.6611C15.1945 35.7424 10.2709 34.1856 6.04274 30.5175C2.84808 27.7473 0.883783 24.2243 0.250416 20.0743C-0.686798 13.9409 0.992911 8.59241 5.6319 4.34003C8.16537 2.01552 11.2209 0.691179 14.6339 0.202817C18.7422 -0.385777 22.6066 0.303049 26.2014 2.39938C26.884 2.79817 27.5302 3.25241 28.1165 3.77703C28.7691 4.35923 28.9959 5.10137 28.7563 5.9608C28.5915 6.55366 28.2384 7.03136 27.8083 7.46214C26.3319 8.94215 24.8812 10.4456 23.4668 11.9854C23.409 12.0493 23.3427 12.1069 23.2935 12.1752C23.0923 12.4503 22.8206 12.7296 23.0024 13.0964C23.1779 13.4483 23.5417 13.4654 23.8969 13.4654C25.4075 13.4611 26.9182 13.4654 28.4289 13.4654V13.459Z" fill="#3093D1"/>
<path d="M24.941 31.2894C24.0794 31.8723 23.2891 31.8062 22.5702 31.091C19.2728 27.8026 15.2586 25.8598 10.7501 24.8596C8.56545 24.3755 6.35294 24.1623 4.11476 24.2348C3.751 24.2454 3.57554 24.1281 3.42148 23.804C2.41579 21.6735 1.92365 19.445 2.19112 17.0927C2.47357 14.604 3.29737 12.2838 4.52987 10.1043C5.64682 8.13375 7.01199 6.37437 8.8693 5.03297C11.9612 2.80016 15.3207 2.51439 18.8834 3.65746C19.4825 3.84939 20.0602 4.13729 20.7171 4.11383C21.0488 4.10317 21.3334 4.02853 21.4789 3.70224C21.6351 3.35463 21.4233 3.11791 21.2071 2.88972C20.9653 2.63595 20.6572 2.49093 20.347 2.34165C20.0581 2.20303 19.7328 2.12839 19.4761 1.87035C19.9682 1.55473 20.4668 1.65922 20.9739 1.74453C22.2749 1.96418 23.5095 2.35445 24.543 3.20321C25.3326 3.85152 25.9574 4.64698 25.9018 5.72606C25.829 7.12717 24.3462 8.14015 22.8933 7.87571C22.0523 7.72216 21.312 7.3319 20.5631 6.9587C19.3862 6.3701 18.22 5.74526 16.9255 5.45309C13.8485 4.75787 11.131 5.54053 8.7131 7.49611C7.31156 8.63065 6.20316 10.0147 5.26809 11.5438C5.19106 11.6717 5.12472 11.8061 5.02844 11.9895C7.11898 12.1729 9.10253 12.0492 10.947 11.0405C11.2466 10.8763 11.5354 10.6907 11.8371 10.5286C12.1367 10.3666 12.3464 10.1789 12.3828 9.79504C12.417 9.4389 12.708 9.18512 13.1445 8.96973C13.3328 9.26829 12.8321 9.80783 13.4655 9.94432C14.0582 10.0723 14.1245 9.52846 14.3578 9.18512C14.6959 9.43463 14.7686 9.74172 14.5782 10.0808C14.4284 10.3474 14.5076 10.5223 14.7173 10.695C15.1452 11.0447 15.3742 11.499 15.4704 12.047C15.5496 12.4928 15.877 12.8276 16.1509 13.1773C16.3627 13.446 16.5788 13.7105 16.7778 13.9898C16.9982 14.3012 17.0025 14.6381 16.7885 14.9495C16.5596 15.2822 16.2065 15.5232 15.8192 15.3611C14.9056 14.9772 13.9491 14.717 13.0268 14.3652C12.6374 14.218 12.4363 13.8128 12.0661 13.5441C12.0768 14.1391 12.4341 14.4867 12.7722 14.8642C11.82 15.5104 11.4006 16.4594 11.1246 17.5086C10.7951 18.754 10.1425 19.7585 8.90139 20.2852C8.84362 20.3087 8.77943 20.3194 8.67244 20.3471C8.7024 19.9163 9.07471 19.6305 9.0255 19.2232C8.03479 20.0784 7.45278 21.6138 7.63038 22.8806C7.68601 23.273 7.92353 23.3753 8.28514 23.354C8.70668 23.3306 8.53336 23.0235 8.54833 22.8209C8.56117 22.6353 8.52052 22.4455 8.50126 22.26C8.37929 21.1617 8.44563 21.0636 9.57114 20.6947C9.66529 21.4454 9.44489 22.1875 9.55616 22.9382C9.62677 23.4031 9.84931 23.6526 10.288 23.7272C12.1153 24.0407 13.8827 24.5589 15.5924 25.267C15.8385 25.3693 16.0161 25.3459 16.2493 25.1987C19.4996 23.1536 23.0045 21.7652 26.8154 21.1852C28.6193 20.9101 30.438 20.9015 32.259 20.9527C32.5093 20.9591 32.6227 21.0359 32.5436 21.2811C32.4152 21.6842 32.3574 21.8975 32.152 22.4861C31.9594 22.2131 31.7005 22.1278 31.3624 22.1171C28.3817 22.0233 25.4738 22.4583 22.6279 23.3092C21.0103 23.7933 19.506 24.5504 18.0788 25.4525C17.5054 25.815 17.5139 25.8811 18.0745 26.2266C18.4832 26.4783 18.8662 26.7704 19.26 27.0434C19.521 27.2247 19.7478 27.2097 20.0153 27.0327C23.0002 25.0558 26.2677 23.8466 29.8432 23.5204C30.4637 23.4628 31.0949 23.3626 31.7262 23.482C31.3795 24.2988 31.2512 24.7317 30.7761 25.4866C30.7397 25.4269 30.7162 25.3629 30.7248 25.2925C30.7997 24.7103 30.8018 24.7338 30.1791 24.7701C27.3547 24.9385 24.742 25.8236 22.2342 27.0732C21.864 27.2588 21.5345 27.5019 21.2007 27.745C20.9525 27.9263 20.9076 28.1182 21.1515 28.3293C21.7207 28.822 22.2963 29.3082 22.8505 29.8179C23.0944 30.0439 23.2913 29.8797 23.486 29.7326C24.3761 29.0608 25.3347 28.4957 26.2933 27.9263C27.0209 27.4955 27.7933 27.1607 28.5872 26.8984C29.2227 26.6894 29.794 26.3631 30.3952 26.0965C29.8496 27.0477 29.1927 27.9092 28.3817 28.6535C28.3304 28.5554 28.3411 28.4573 28.4074 28.3123C27.0893 28.7559 25.9767 29.4873 24.9004 30.2764C24.6671 30.447 24.436 30.624 24.222 30.8202C24.1343 30.8991 24.0231 30.978 24.0958 31.1188C24.1579 31.2382 24.2755 31.2659 24.4018 31.2616C24.5858 31.2552 24.772 31.1657 24.9474 31.2936L24.941 31.2894Z" fill="#FAFAF8"/>
<path d="M31.7176 23.4799C30.453 23.6996 29.1606 23.6591 27.8982 23.9235C25.0373 24.5206 22.3605 25.5443 19.9704 27.2461C19.7414 27.4103 19.598 27.4529 19.3498 27.2738C18.7828 26.8622 18.1922 26.4826 17.5974 26.1137C17.2978 25.9281 17.3064 25.8279 17.5931 25.6253C19.4739 24.2946 21.5474 23.3861 23.7727 22.8401C26.3404 22.2089 28.9445 21.8464 31.6021 21.9807C31.9509 21.9978 32.2333 22.0276 32.1477 22.4861C32.0771 22.8487 31.9402 23.1835 31.7198 23.4842L31.7176 23.4799Z" fill="#C6D47F"/>
<path d="M30.3888 26.0923C29.9994 26.5636 29.5179 26.6233 28.8974 26.9197C26.9588 27.8453 25.0651 28.7154 23.364 29.9906C23.1072 30.1826 22.9938 30.1613 22.7799 29.9608C22.2064 29.4212 21.6222 28.8924 21.0124 28.3955C20.6572 28.1033 20.6914 27.9284 21.0466 27.6725C22.4824 26.6425 24.1086 26.0283 25.7648 25.4781C27.329 24.9577 28.9445 24.6976 30.5835 24.576C30.744 24.5632 31.0436 24.5099 31.1463 24.672C31.2297 24.8042 31.1249 24.9279 31.0286 25.0793C30.9473 25.2073 30.8532 25.3373 30.7676 25.4845C30.6413 25.6892 30.5151 25.8918 30.3888 26.0944V26.0923Z" fill="#C6D47F"/>
<path d="M19.7435 33.1086C18.9496 33.3005 18.3912 33.0851 17.792 32.5349C15.1601 30.1144 12.0596 28.5555 8.54401 27.8347C7.7737 27.6769 6.9991 27.534 6.20953 27.5084C5.58045 27.4892 5.4328 26.9219 5.02411 26.5871C8.88637 25.7149 17.255 29.4405 19.7435 33.1086Z" fill="#F9F9F8"/>
<path d="M24.941 31.2893C24.3033 31.7521 24.3055 31.5943 23.9824 31.2616C23.8155 31.0889 23.7876 30.9972 23.9824 30.8202C25.1336 29.7731 27.222 28.5298 28.6235 28.0947C28.5315 28.2995 28.4545 28.4743 28.3774 28.6471C27.376 29.7155 26.2184 30.5792 24.941 31.2893Z" fill="#C6D481"/>
<path d="M27.8982 18.0417C27.8982 18.4341 27.8917 18.8265 27.9003 19.2189C27.9046 19.4322 27.8275 19.5345 27.605 19.5281C27.2798 19.5175 26.9545 19.5132 26.6293 19.5175C26.4174 19.5217 26.3768 19.4109 26.3789 19.2296C26.3875 18.4619 26.3875 17.6941 26.3939 16.9264C26.3939 16.8283 26.3811 16.6769 26.5009 16.6726C26.9267 16.6534 27.3547 16.647 27.7805 16.6684C27.9324 16.6769 27.8939 16.8539 27.896 16.9669C27.9003 17.3252 27.896 17.6835 27.896 18.0417H27.8982Z" fill="#F8F9F7"/>
<path d="M28.6385 16.2633C28.6413 15.6932 28.8953 15.4074 29.4002 15.406C30.1791 15.406 30.1834 15.406 30.1813 16.4126C30.1791 17.24 30.2604 17.1313 29.4858 17.1398C28.6364 17.1483 28.6364 17.1441 28.6406 16.2633H28.6385Z" fill="#F8F9F7"/>
<path d="M30.1834 18.6474C30.182 19.2318 29.9017 19.5239 29.3425 19.5239C28.8746 19.5239 28.6406 19.2872 28.6406 18.8138C28.6406 17.7816 28.6406 17.8328 29.6634 17.82C30.4616 17.8093 30.0999 18.351 30.1855 18.6474H30.1834Z" fill="#F9F9F8"/>
<path d="M24.1151 18.6879C24.1193 17.8626 24.1215 17.884 24.9517 17.8328C25.7391 17.7859 25.6193 17.8157 25.6236 18.5152C25.63 19.5346 25.6236 19.541 24.6949 19.5175C24.0038 19.5005 24.1215 19.6305 24.1172 18.6858L24.1151 18.6879Z" fill="#F7F8F7"/>
<path d="M5.69602 17.594C5.93139 17.8414 5.91641 18.1549 5.91427 18.4193C5.91 19.4067 6.25664 20.3194 6.43852 21.2684C6.54122 21.8037 6.61184 22.3433 6.599 22.8913C6.59258 23.1366 6.50699 23.2091 6.26947 23.2155C5.65108 23.2304 5.04125 23.1515 4.42714 23.1131C4.24527 23.1025 4.16395 23.0214 4.11046 22.8466C3.89007 22.1151 3.64613 21.39 3.4236 20.6585C3.33373 20.3664 3.41718 20.1766 3.76382 20.1211C4.23243 20.0465 4.69247 19.8972 5.16322 19.8417C5.44567 19.8076 5.48632 19.7074 5.47563 19.4579C5.44567 18.833 5.40073 18.2018 5.69816 17.5961L5.69602 17.594Z" fill="#3093D1"/>
<path d="M14.4048 12.2261C14.2315 12.1941 13.9512 12.2197 13.949 12.0171C13.9469 11.7698 14.2058 11.693 14.4455 11.6951C14.6701 11.6972 14.9098 11.7911 14.9034 12.0065C14.8927 12.2773 14.606 12.2048 14.407 12.2261H14.4048Z" fill="#3093D1"/>
<path d="M25.6279 17.8201H24.1108V19.5283H25.6279V17.8201Z" fill="white"/>
<path d="M27.9003 16.6536H26.3768V19.5262H27.9003V16.6536Z" fill="white"/>
<path d="M30.1813 15.408H28.6385V17.1418H30.1813V15.408Z" fill="white"/>
<path d="M30.192 17.8201H28.6385V19.5283H30.192V17.8201Z" fill="white"/>
</g>
<defs>
<clipPath id="clip0_388_3467">
<rect width="35" height="35" fill="white"/>
</clipPath>
</defs>
</svg>
