<svg width="15" height="17" viewBox="0 0 15 17" fill="none" xmlns="http://www.w3.org/2000/svg">
<path d="M2.8077 16.8846C2.31058 16.8846 1.88502 16.7075 1.53102 16.3535C1.17701 15.9995 1 15.574 1 15.0769V2.38458H0.75C0.5375 2.38458 0.359375 2.31267 0.215625 2.16885C0.071875 2.02505 0 1.84685 0 1.63425C0 1.42167 0.071875 1.24358 0.215625 1.1C0.359375 0.9564 0.5375 0.884599 0.75 0.884599H4.49997C4.49997 0.639733 4.58619 0.431084 4.75863 0.25865C4.93106 0.0862169 5.13971 0 5.38457 0H9.61538C9.86024 0 10.0689 0.0862169 10.2413 0.25865C10.4138 0.431084 10.5 0.639733 10.5 0.884599H14.25C14.4625 0.884599 14.6406 0.956508 14.7843 1.10033C14.9281 1.24414 15 1.42234 15 1.63492C15 1.84752 14.9281 2.02562 14.7843 2.1692C14.6406 2.31278 14.4625 2.38458 14.25 2.38458H14V15.0769C14 15.574 13.8229 15.9995 13.4689 16.3535C13.1149 16.7075 12.6894 16.8846 12.1922 16.8846H2.8077ZM12.5 2.38458H2.49997V15.0769C2.49997 15.1666 2.52883 15.2403 2.58652 15.298C2.64422 15.3557 2.71795 15.3846 2.8077 15.3846H12.1922C12.282 15.3846 12.3557 15.3557 12.4134 15.298C12.4711 15.2403 12.5 15.1666 12.5 15.0769V2.38458ZM5.65417 13.3846C5.86676 13.3846 6.04484 13.3127 6.18842 13.169C6.33202 13.0252 6.40382 12.8471 6.40382 12.6346V5.13455C6.40382 4.92207 6.33192 4.74395 6.1881 4.6002C6.04428 4.45645 5.86608 4.38458 5.6535 4.38458C5.4409 4.38458 5.26281 4.45645 5.11922 4.6002C4.97564 4.74395 4.90385 4.92207 4.90385 5.13455V12.6346C4.90385 12.8471 4.97576 13.0252 5.11958 13.169C5.26337 13.3127 5.44158 13.3846 5.65417 13.3846ZM9.34645 13.3846C9.55905 13.3846 9.73714 13.3127 9.88072 13.169C10.0243 13.0252 10.0961 12.8471 10.0961 12.6346V5.13455C10.0961 4.92207 10.0242 4.74395 9.88037 4.6002C9.73658 4.45645 9.55837 4.38458 9.34577 4.38458C9.13319 4.38458 8.95511 4.45645 8.81152 4.6002C8.66792 4.74395 8.59613 4.92207 8.59613 5.13455V12.6346C8.59613 12.8471 8.66803 13.0252 8.81185 13.169C8.95567 13.3127 9.13387 13.3846 9.34645 13.3846Z" fill="#35353A"/>
</svg>
