<svg width="101" height="99" viewBox="0 0 101 99" fill="none" xmlns="http://www.w3.org/2000/svg">
<g clip-path="url(#clip0_280_88)">
<path d="M68.9086 25.2951C71.617 25.2951 74.3255 25.3392 77.0339 25.2831C80.0035 25.2269 81.0403 26.8623 81.1649 29.2912C81.402 33.8283 81.2091 38.2974 79.7303 42.598C75.531 54.8147 67.1806 62.6385 54.418 65.1436C44.0544 67.1757 34.8079 64.2498 26.8674 57.3559C20.8679 52.1493 17.1789 45.528 15.9895 37.7282C14.2294 26.2009 17.3839 16.1486 26.0959 8.15646C30.8537 3.78764 36.5921 1.29861 43.0016 0.380754C50.717 -0.725481 57.9743 0.569134 64.7254 4.50909C66.0072 5.25861 67.2208 6.11233 68.3219 7.09832C69.5475 8.19253 69.9735 9.58735 69.5234 11.2026C69.214 12.3169 68.5509 13.2147 67.7432 14.0243C64.9705 16.8059 62.246 19.6316 59.5898 22.5255C59.4813 22.6457 59.3567 22.754 59.2643 22.8822C58.8865 23.3993 58.3762 23.9243 58.7178 24.6137C59.0473 25.275 59.7304 25.3071 60.3975 25.3071C63.2345 25.2991 66.0715 25.3071 68.9086 25.3071V25.2951Z" fill="#3093D1"/>
<path d="M62.3585 58.8068C60.7404 59.9023 59.2562 59.7781 57.906 58.434C51.7136 52.2535 44.1749 48.6022 35.708 46.7224C31.6052 45.8125 27.4501 45.4117 23.2468 45.548C22.5636 45.568 22.2341 45.3476 21.9448 44.7384C20.0561 40.7343 19.1319 36.5458 19.6342 32.1249C20.1646 27.4474 21.7117 23.0866 24.0264 18.9903C26.124 15.2869 28.6878 11.9802 32.1758 9.45909C37.9825 5.26262 44.2915 4.72553 50.9822 6.87387C52.1074 7.2346 53.1924 7.77569 54.426 7.7316C55.0489 7.71156 55.5833 7.57128 55.8566 6.95804C56.1499 6.30472 55.7521 5.85982 55.3462 5.43096C54.8922 4.95399 54.3135 4.68144 53.7308 4.40088C53.1883 4.14035 52.5775 4.00007 52.0953 3.51509C53.0196 2.92189 53.9559 3.11828 54.9082 3.27861C57.3515 3.69144 59.6701 4.42492 61.611 6.02015C63.0938 7.23861 64.2672 8.73363 64.1628 10.7617C64.0261 13.395 61.2413 15.2989 58.5128 14.8019C56.9335 14.5133 55.5432 13.7798 54.1367 13.0784C51.9265 11.9722 49.7365 10.7978 47.3053 10.2487C41.5268 8.94205 36.4233 10.413 31.8825 14.0884C29.2504 16.2208 27.1688 18.822 25.4127 21.6958C25.2681 21.9363 25.1435 22.1888 24.9627 22.5335C28.8887 22.8782 32.6138 22.6457 36.0777 20.7499C36.6403 20.4413 37.1828 20.0926 37.7494 19.788C38.312 19.4833 38.7058 19.1306 38.7741 18.4092C38.8384 17.7398 39.3849 17.2629 40.2047 16.858C40.5583 17.4192 39.618 18.4332 40.8075 18.6897C41.9206 18.9302 42.0451 17.9082 42.4832 17.2629C43.1181 17.7318 43.2547 18.309 42.8971 18.9463C42.6158 19.4473 42.7645 19.7759 43.1583 20.1006C43.962 20.7579 44.3919 21.6116 44.5728 22.6417C44.7214 23.4794 45.3363 24.1087 45.8506 24.766C46.2485 25.271 46.6543 25.768 47.028 26.2931C47.4419 26.8783 47.45 27.5116 47.0481 28.0967C46.6182 28.722 45.9551 29.1749 45.2278 28.8703C43.5119 28.1489 41.7156 27.6599 39.9837 26.9985C39.2523 26.722 38.8746 25.9604 38.1794 25.4554C38.1995 26.5737 38.8706 27.227 39.5055 27.9364C37.7173 29.1509 36.9296 30.9345 36.4113 32.9065C35.7924 35.2472 34.5668 37.135 32.2361 38.125C32.1276 38.1691 32.007 38.1891 31.8061 38.2412C31.8624 37.4316 32.5616 36.8945 32.4692 36.129C30.6086 37.7362 29.5156 40.6221 29.8491 43.0029C29.9536 43.7403 30.3996 43.9327 31.0788 43.8927C31.8704 43.8486 31.5449 43.2714 31.573 42.8906C31.5971 42.5419 31.5208 42.1852 31.4846 41.8365C31.2556 39.7723 31.3801 39.588 33.4939 38.8946C33.6707 40.3054 33.2568 41.7002 33.4657 43.1111C33.5983 43.9848 34.0163 44.4538 34.84 44.5941C38.2718 45.1833 41.5911 46.1572 44.8018 47.4879C45.2639 47.6803 45.5975 47.6362 46.0355 47.3597C52.1395 43.5159 58.7218 40.9066 65.8786 39.8164C69.2662 39.2994 72.6819 39.2833 76.1016 39.3795C76.5718 39.3916 76.7847 39.5359 76.6361 39.9968C76.395 40.7543 76.2865 41.1551 75.9007 42.2614C75.539 41.7483 75.0528 41.588 74.4179 41.568C68.8202 41.3916 63.3591 42.2093 58.0145 43.8085C54.9766 44.7183 52.1516 46.1412 49.4713 47.8366C48.3943 48.518 48.4104 48.6423 49.4632 49.2916C50.2307 49.7645 50.9501 50.3136 51.6895 50.8267C52.1797 51.1674 52.6057 51.1393 53.108 50.8066C58.7137 47.0911 64.8499 44.8185 71.5648 44.2053C72.7301 44.0971 73.9156 43.9087 75.101 44.1331C74.45 45.6682 74.2089 46.4819 73.3168 47.9008C73.2485 47.7885 73.2043 47.6683 73.2204 47.536C73.361 46.4418 73.365 46.4859 72.1957 46.554C66.8913 46.8707 61.9847 48.534 57.2751 50.8828C56.5799 51.2315 55.9611 51.6884 55.3342 52.1453C54.8681 52.486 54.7837 52.8467 55.2418 53.2435C56.3107 54.1694 57.3917 55.0833 58.4324 56.0412C58.8905 56.4661 59.2602 56.1574 59.6259 55.8809C61.2976 54.6183 63.0979 53.5562 64.8981 52.486C66.2644 51.6764 67.7151 51.0471 69.2059 50.5541C70.3994 50.1613 71.4723 49.5481 72.6015 49.0471C71.5768 50.8347 70.3431 52.454 68.8201 53.8528C68.7237 53.6684 68.7438 53.484 68.8684 53.2115C66.393 54.0452 64.3034 55.4199 62.2821 56.9029C61.8441 57.2236 61.4101 57.5563 61.0083 57.925C60.8435 58.0733 60.6345 58.2216 60.7712 58.4861C60.8877 58.7106 61.1087 58.7627 61.3458 58.7547C61.6914 58.7427 62.041 58.5743 62.3705 58.8148L62.3585 58.8068Z" fill="#FAFAF8"/>
<path d="M75.085 44.1292C72.71 44.542 70.2829 44.4658 67.912 44.9629C62.5393 46.0851 57.5122 48.009 53.0236 51.2075C52.5936 51.5161 52.3244 51.5963 51.8582 51.2596C50.7934 50.486 49.6843 49.7726 48.5671 49.0792C48.0045 48.7305 48.0206 48.5421 48.5591 48.1613C52.0913 45.6603 55.9852 43.9528 60.1644 42.9267C64.9866 41.7403 69.877 41.059 74.868 41.3115C75.523 41.3435 76.0534 41.3997 75.8927 42.2614C75.7601 42.9428 75.5029 43.572 75.089 44.1372L75.085 44.1292Z" fill="#C6D47F"/>
<path d="M72.5895 49.0391C71.8581 49.9249 70.954 50.0371 69.7886 50.5942C66.1479 52.3337 62.5916 53.969 59.3969 56.3659C58.9147 56.7266 58.7017 56.6865 58.2999 56.3098C57.2229 55.2957 56.1259 54.3017 54.9806 53.3678C54.3135 52.8187 54.3778 52.4901 55.0449 52.0091C57.7413 50.0732 60.7953 48.9188 63.9056 47.8847C66.8431 46.9068 69.877 46.4178 72.9552 46.1893C73.2566 46.1653 73.8191 46.0651 74.012 46.3697C74.1688 46.6182 73.9719 46.8507 73.791 47.1352C73.6383 47.3757 73.4615 47.6202 73.3008 47.8968C73.0637 48.2816 72.8266 48.6623 72.5895 49.0431V49.0391Z" fill="#C6D47F"/>
<path d="M52.5976 62.2257C51.1068 62.5865 50.058 62.1816 48.9328 61.1475C43.9901 56.5984 38.1674 53.6684 31.565 52.3137C30.1184 52.0171 28.6637 51.7486 27.1809 51.7005C25.9995 51.6644 25.7222 50.5982 24.9547 49.969C32.208 48.3296 47.9242 55.3318 52.5976 62.2257Z" fill="#F9F9F8"/>
<path d="M62.3585 58.8068C61.161 59.6766 61.165 59.38 60.5582 58.7547C60.2448 58.43 60.1925 58.2577 60.5582 57.925C62.7201 55.957 66.6422 53.6203 69.2743 52.8027C69.1015 53.1875 68.9568 53.5161 68.8121 53.8408C66.9315 55.8488 64.7575 57.4721 62.3585 58.8068Z" fill="#C6D481"/>
<path d="M67.912 33.9085C67.912 34.646 67.8999 35.3835 67.916 36.121C67.924 36.5218 67.7794 36.7142 67.3614 36.7021C66.7506 36.6821 66.1398 36.6741 65.529 36.6821C65.1312 36.6901 65.0548 36.4817 65.0589 36.141C65.0749 34.6981 65.0749 33.2552 65.087 31.8123C65.087 31.6279 65.0629 31.3433 65.2879 31.3353C66.0876 31.2992 66.8913 31.2872 67.691 31.3273C67.9763 31.3433 67.9039 31.676 67.908 31.8884C67.916 32.5618 67.908 33.2351 67.908 33.9085H67.912Z" fill="#F8F9F7"/>
<path d="M69.3024 30.5657C69.3077 29.4942 69.7846 28.9571 70.7329 28.9545C72.1957 28.9545 72.2037 28.9545 72.1997 30.8463C72.1957 32.4014 72.3484 32.197 70.8937 32.2131C69.2983 32.2291 69.2983 32.2211 69.3064 30.5657H69.3024Z" fill="#F8F9F7"/>
<path d="M72.2037 35.0468C72.201 36.145 71.6746 36.6941 70.6245 36.6941C69.7457 36.6941 69.3064 36.2492 69.3064 35.3594C69.3064 33.4195 69.3064 33.5157 71.2272 33.4916C72.7261 33.4716 72.047 34.4896 72.2077 35.0468H72.2037Z" fill="#F9F9F8"/>
<path d="M60.8074 35.1229C60.8154 33.5718 60.8194 33.6119 62.3786 33.5157C63.8574 33.4275 63.6323 33.4836 63.6404 34.7983C63.6524 36.7141 63.6404 36.7262 61.8964 36.6821C60.5984 36.65 60.8194 36.8945 60.8114 35.1189L60.8074 35.1229Z" fill="#F7F8F7"/>
<path d="M26.2164 33.0668C26.6585 33.5317 26.6303 34.1209 26.6263 34.6179C26.6183 36.4737 27.2693 38.1891 27.6108 39.9727C27.8037 40.9788 27.9363 41.9928 27.9122 43.0229C27.9002 43.4838 27.7394 43.6201 27.2934 43.6321C26.132 43.6602 24.9868 43.5119 23.8335 43.4397C23.4919 43.4197 23.3392 43.2674 23.2387 42.9387C22.8248 41.5639 22.3667 40.2012 21.9488 38.8264C21.78 38.2773 21.9368 37.9206 22.5878 37.8164C23.4678 37.6761 24.3318 37.3955 25.2158 37.2913C25.7463 37.2272 25.8226 37.0388 25.8025 36.5698C25.7463 35.3955 25.6619 34.2091 26.2204 33.0708L26.2164 33.0668Z" fill="#3093D1"/>
<path d="M42.5716 22.9784C42.2461 22.9183 41.7197 22.9664 41.7157 22.5856C41.7116 22.1206 42.1979 21.9764 42.6479 21.9804C43.0699 21.9844 43.52 22.1607 43.5079 22.5655C43.4878 23.0746 42.9493 22.9383 42.5756 22.9784H42.5716Z" fill="#3093D1"/>
<path d="M63.6484 33.4916H60.7993V36.7021H63.6484V33.4916Z" fill="white"/>
<path d="M67.916 31.2992H65.0549V36.6981H67.916V31.2992Z" fill="white"/>
<path d="M72.1997 28.9585H69.3024V32.2171H72.1997V28.9585Z" fill="white"/>
<path d="M72.2198 33.4916H69.3024V36.7021H72.2198V33.4916Z" fill="white"/>
<path d="M79.7946 89.8735C79.5656 89.8735 79.3687 89.8735 79.1718 89.8735C77.1666 89.8735 75.1573 89.8735 73.1521 89.8815C72.907 89.8815 72.7463 89.8655 72.7463 89.5569C72.7463 88.4747 72.7342 87.3925 72.7181 86.3103C72.7181 86.0819 72.8226 86.0418 73.0195 86.0418C76.6201 86.0538 80.2246 86.0658 83.8252 86.0658C84.1627 86.0658 84.227 86.2302 84.2591 86.5147C84.9262 92.1581 81.4382 97.3085 75.8847 98.6072C71.9144 99.5371 68.2014 98.8316 64.9826 96.2344C62.7885 94.4668 61.6111 92.07 61.1811 89.3324C60.6306 85.8173 61.3459 82.5547 63.6203 79.7731C66.377 76.4063 69.9936 74.9353 74.3456 75.4003C77.2067 75.7049 79.6379 76.9394 81.6954 78.9394C81.9726 79.212 82.0289 79.3683 81.7074 79.6609C80.9399 80.3543 80.2527 81.1279 79.4772 81.8173C79.2562 82.0136 79.0994 82.0257 78.8985 81.8293C78.7579 81.693 78.5891 81.5808 78.4565 81.4365C75.9369 78.6909 71.2514 78.6749 68.3742 80.9555C65.6617 83.1079 64.7535 85.9897 65.5452 89.2924C66.3127 92.5109 68.5269 94.3746 71.7617 94.9718C75.298 95.6251 78.569 93.6852 79.646 90.3745C79.6942 90.2222 79.7344 90.0659 79.7906 89.8695L79.7946 89.8735Z" fill="#595A5A"/>
<path d="M11.8706 98.9759C7.18906 98.8076 3.476 96.9438 1.29398 92.6712C-1.73996 86.7352 0.771576 79.2441 6.63451 76.4624C11.316 74.242 16.974 75.2881 20.5585 79.0276C20.8116 79.2922 20.7594 79.4164 20.5263 79.6409C19.7789 80.3583 19.0435 81.0878 18.3282 81.8333C18.1153 82.0537 18.0068 82.0818 17.7697 81.8533C16.7409 80.8754 15.6118 80.0417 14.2214 79.6208C9.88143 78.3062 5.14768 81.2641 4.47258 85.7372C4.05466 88.5108 4.65743 90.9918 6.72693 92.9878C9.38716 95.549 14.1048 95.9899 17.3075 93.088C18.0389 92.4227 18.051 92.4427 18.7542 93.1642C19.3168 93.7413 19.8673 94.3345 20.4741 94.8596C20.8398 95.1722 20.7433 95.3406 20.462 95.6131C18.7381 97.2845 16.6766 98.2905 14.3299 98.7475C13.5181 98.9038 12.7024 98.9759 11.8665 98.9799L11.8706 98.9759Z" fill="#595A5A"/>
<path d="M46.5379 83.8694C46.6624 83.8373 46.7227 83.689 46.8151 83.5808C48.2537 81.8533 50.1504 81.2681 52.3204 81.4445C54.3216 81.6088 56.0335 82.3623 57.227 84.0618C58.0146 85.184 58.2517 86.4706 58.2637 87.7893C58.2959 91.2162 58.2677 94.6432 58.2798 98.0701C58.2798 98.4028 58.1472 98.4388 57.8699 98.4348C56.8331 98.4188 55.7964 98.4028 54.7596 98.4348C54.3377 98.4468 54.2091 98.3506 54.2131 97.9017C54.2372 94.8997 54.2252 91.9016 54.2292 88.8996C54.2292 88.3705 54.1689 87.8494 54.0082 87.3484C53.4335 85.5808 52.0632 84.8754 49.9736 85.1119C47.7595 85.3604 46.6825 86.7833 46.6825 89.2443C46.6825 92.114 46.6825 94.9838 46.7307 97.8536C46.7388 98.3787 46.5821 98.4709 46.1079 98.4549C45.055 98.4188 44.0022 98.4348 42.9494 98.4549C42.6761 98.4589 42.5877 98.3907 42.5877 98.1062C42.5957 92.7594 42.5957 87.4125 42.5877 82.0698C42.5877 81.7852 42.6721 81.717 42.9494 81.7211C44.0344 81.7371 45.1193 81.7411 46.2043 81.7211C46.5017 81.717 46.5579 81.8253 46.5499 82.0898C46.5338 82.679 46.5459 83.2682 46.5459 83.8734L46.5379 83.8694Z" fill="#595A5A"/>
<path d="M31.1512 81.4084C25.891 81.4886 22.1498 85.0919 22.1659 90.1822C22.186 95.2204 26.0397 98.9599 31.1994 98.9399C36.2747 98.9238 40.1525 95.1202 40.1284 90.1782C40.3173 85.2001 36.3149 81.3283 31.1471 81.4084H31.1512ZM34.0927 94.5029C31.9267 96.1422 27.4984 95.8697 26.5179 91.5529C26.0959 89.6932 26.4054 87.9416 27.6551 86.4226C29.4755 84.2021 34.2856 84.0698 35.6679 88.1901C35.7925 88.5589 35.8809 88.9477 35.9452 89.3325C35.9934 89.621 35.9814 89.9216 36.0014 90.3225C35.9371 91.9017 35.5112 93.4367 34.0967 94.5069L34.0927 94.5029Z" fill="#595A5A"/>
<path d="M100.98 96.2584C100.956 93.1922 101.06 90.126 100.94 87.0598C100.835 84.4265 99.3243 82.5106 96.7686 81.7972C95.117 81.3363 93.4292 81.2962 91.7375 81.5647C90.2587 81.8012 88.8924 82.3263 87.6828 83.2241C87.5342 83.3363 87.3172 83.4165 87.4417 83.681C87.8918 84.6389 88.3338 85.5969 88.796 86.5869C90.1542 85.184 91.7857 84.663 93.6503 84.7592C95.776 84.8674 97.0298 86.1019 97.0981 88.15C97.1102 88.5027 97.0418 88.627 96.6561 88.619C95.2416 88.5909 93.8271 88.5789 92.4126 88.619C91.0624 88.6551 89.7282 88.8194 88.5106 89.4847C86.5336 90.5589 85.6656 92.2423 85.8544 94.4427C86.0313 96.5109 87.2408 97.8176 89.1496 98.5029C90.7409 99.0721 92.3684 99.0761 93.9999 98.6633C95.2536 98.3466 96.214 97.5771 97.0981 96.551C97.0981 97.1522 97.1061 97.6612 97.0981 98.1663C97.0941 98.3747 97.1544 98.4508 97.3754 98.4508C98.4764 98.4428 99.5775 98.4388 100.683 98.4508C100.928 98.4508 100.992 98.3627 100.988 98.1342C100.98 97.5129 100.992 96.8877 100.988 96.2664L100.98 96.2584ZM97.1102 91.7854C96.869 94.6993 94.245 96.4789 91.4602 95.6852C90.6766 95.4608 90.1502 94.9878 90.0095 94.1862C89.8649 93.3525 90.0658 92.583 90.7208 91.9978C91.1628 91.605 91.7013 91.4046 92.288 91.3645C93.7829 91.2563 95.2818 91.3325 96.7766 91.2844C97.303 91.2683 97.074 91.617 97.1061 91.7854H97.1102Z" fill="#595A5A"/>
</g>
<defs>
<clipPath id="clip0_280_88">
<rect width="101" height="99" fill="white"/>
</clipPath>
</defs>
</svg>
